<svg xmlns="http://www.w3.org/2000/svg" width="125.198" height="124.824" viewBox="1378 625 125.198 124.824"><path d="M1445.93 643.437a3.257 3.257 0 0 0 .686-1.791c.054-2.666-1.637-5.113-3.451-5.08-1.947.035-2.699 1.324-2.751 3.088-.075 2.536 1.59 4.725 3.539 4.642a3.415 3.415 0 0 0 .869-.142 2.328 2.328 0 0 0 1.109-.717Zm-31.918 19.56a84.998 84.998 0 0 0 .02-.362c.076-1.417.152-2.611 1.354-3.006a2.543 2.543 0 0 1 .384-.093 2.831 2.831 0 0 1 .247-.03c1.094-.08 1.71.567 2.093 1.418a6.203 6.203 0 0 1 .315.903 15.546 15.546 0 0 1 .484 2.55 12.326 12.326 0 0 1 .052.764 3.875 3.875 0 0 1 .003.143c0 1-.398 1.871-1.338 2.23a2.53 2.53 0 0 1-.462.127c-1.334.237-2.16-.592-2.537-1.744-.343-1.043-.467-2.158-.61-2.876a8.14 8.14 0 0 0-.005-.024Zm64.042-31.252a3.643 3.643 0 0 0 1.01-.2c1.077-.389 1.606-1.292 1.675-2.44-.062-2.123-1.967-4.105-3.796-4.105a2.506 2.506 0 0 0-.1.002 4.173 4.173 0 0 0-.693.083c-1.3.274-2.063 1.188-2.124 2.685a2.7 2.7 0 0 0-.002.109c0 1.957 2.103 3.989 4.03 3.866Zm-94.713 58.135c-1.974.029-3.222-1.559-3.235-4.155-.006-1.239.039-2.527 1.69-2.658a3.256 3.256 0 0 1 .025-.002 1.272 1.272 0 0 1 .091-.003c1.508 0 3.898 2.553 3.953 4.169.047 1.359-.742 2.358-1.984 2.596a3.107 3.107 0 0 1-.54.053Zm55 44.352c2.267-.031 4.853 3.963 3.95 5.704-.508.979-1.327 1.224-2.262 1.023a3.818 3.818 0 0 1-.412-.114 2.09 2.09 0 0 1-.065-.023c-1.546-.578-3.092-3.187-2.848-4.76a1.928 1.928 0 0 1 .008-.047 2.876 2.876 0 0 1 .24-.754c.148-.302.346-.54.58-.713a1.703 1.703 0 0 1 .809-.316Zm36.292-67.067a3.356 3.356 0 0 0 .07 0c1.622 0 2.288-1.199 2.437-2.742a5.196 5.196 0 0 0-.158-.897c-.321-1.165-1.082-1.96-2.51-1.997a3.697 3.697 0 0 0-.095-.002c-1.573 0-2.51 1.024-2.539 2.58-.032 1.786.957 3.02 2.795 3.058Zm11.933 47.315c-.1 1.571-.732 2.825-2.416 2.825a3.001 3.001 0 0 1-1.298-.275c-.917-.436-1.46-1.359-1.524-2.532a3.83 3.83 0 0 1-.006-.208c0-1.46.865-2.512 2.44-2.57a3.785 3.785 0 0 1 .139-.002c1.688 0 2.445 1.172 2.665 2.762Zm15.902-44.806a5.496 5.496 0 0 0 .73-2.04 4.626 4.626 0 0 0-.222-.996c-.346-.973-1.049-1.562-2.263-1.53a3.47 3.47 0 0 0-.738.094c-1.181.29-1.853 1.217-1.853 2.533a3.894 3.894 0 0 0 0 .038c.015 1.44.565 2.974 2.263 2.981a3.389 3.389 0 0 0 .016 0c.99 0 1.636-.435 2.067-1.08Zm-31.12 78.931a4.126 4.126 0 0 0 .399-1.316 4.405 4.405 0 0 0-.175-.83c-.228-.708-.642-1.243-1.28-1.518a2.691 2.691 0 0 0-1.004-.204c-1.085-.028-1.882.443-2.27 1.252a2.863 2.863 0 0 0-.264 1.157c-.049 1.593.838 2.678 2.499 2.678a3.84 3.84 0 0 0 .03 0c1.026-.008 1.68-.483 2.066-1.219Zm-54.96-38.596a4.077 4.077 0 0 0-.066-.624c-.246-1.318-1.158-2.098-2.618-2.299a4.594 4.594 0 0 0-.017.002c-1.39.203-2.123.97-2.088 2.23a3.426 3.426 0 0 0 .018.267 4.056 4.056 0 0 0 .119.638c.226.828.713 1.446 1.456 1.752a3.043 3.043 0 0 0 1.141.215c1.31.01 2.056-.826 2.056-2.082a3.247 3.247 0 0 0-.002-.099Zm34.768-10.097a4.71 4.71 0 0 0 .293-1.289c-.138-1.112-.395-2.237-1.337-2.76a2.425 2.425 0 0 0-.89-.274c-1.408-.173-2.01.876-2.018 2.146a8.467 8.467 0 0 0 0 .055c0 1.252.282 2.44 1.355 2.929a2.713 2.713 0 0 0 .93.222 2.532 2.532 0 0 0 .033.002c.882.054 1.364-.385 1.634-1.031Zm-63.37-64.81a3.323 3.323 0 0 0 1.075.29 3.57 3.57 0 0 0 .785-.145c.875-.272 1.429-.903 1.455-1.932.03-1.12-.436-1.972-1.32-2.337a2.765 2.765 0 0 0-1.031-.195 3.46 3.46 0 0 0-.038 0c-1.39 0-2.253.845-2.178 2.3a3.15 3.15 0 0 0 .055.453c.148.747.568 1.265 1.196 1.567Zm-9.742 18.761a25.186 25.186 0 0 0-.044.361 5.712 5.712 0 0 0 .174 1.043c.23.812.71 1.412 1.77 1.411a2.946 2.946 0 0 0 .123-.003c1.254-.053 1.769-1.054 1.7-2.196-.076-1.259-.505-2.552-1.981-2.626-1.34-.067-1.605.972-1.742 2.01Zm14.93 70.119a2.46 2.46 0 0 0-.63-.172 2.551 2.551 0 0 0-.327.059c-.652.165-1.113.593-1.138 1.39-.02.666.26 1.154.765 1.385a1.749 1.749 0 0 0 .652.148 2.183 2.183 0 0 0 .099.002c.63 0 1.086-.283 1.295-.784a1.768 1.768 0 0 0 .125-.628 2.207 2.207 0 0 0 .001-.067c0-.65-.295-1.093-.843-1.333Z" fill="#d55725" fill-rule="evenodd" data-name="Shape"/></svg>