<svg xmlns="http://www.w3.org/2000/svg" width="99.785" height="99.411" viewBox="37 179 99.785 99.411"><path d="M91.688 192.257c-.118 1.105-.678 2.05-2.123 2.11a2.012 2.012 0 0 1-.085.002c-1.483 0-2.737-1.64-2.737-3.568a4.442 4.442 0 0 1 .002-.13c.041-1.405.64-2.432 2.192-2.46a1.592 1.592 0 0 1 .029 0c1.412 0 2.723 1.877 2.723 3.946a4.886 4.886 0 0 1 0 .1ZM65.702 209.26a67.706 67.706 0 0 0 .016-.288c.066-1.239.133-2.263 1.385-2.468a2.257 2.257 0 0 1 .197-.024c.872-.064 1.363.452 1.668 1.13a4.938 4.938 0 0 1 .25.718 12.377 12.377 0 0 1 .386 2.022 9.808 9.808 0 0 1 .042.617c.032.84-.276 1.584-1.052 1.887a2.01 2.01 0 0 1-.38.105 2.109 2.109 0 0 1-.224.028c-.807.055-1.355-.41-1.669-1.088a3.04 3.04 0 0 1-.129-.33 7.122 7.122 0 0 1-.113-.382c-.193-.721-.279-1.442-.377-1.927Zm53.182-26.992c-.07 1.165-.734 2.014-2.14 2.103-1.564.1-3.274-1.581-3.21-3.167.057-1.39.875-2.15 2.246-2.203 1.481-.059 3.054 1.546 3.104 3.267Zm-77.67 48.402a2.88 2.88 0 0 0 .043 0c1.203-.017 2.013-.836 2.013-2.02a2.637 2.637 0 0 0-.001-.09 1.46 1.46 0 0 0-.009-.114c-.149-1.316-2.052-3.287-3.214-3.204a2.601 2.601 0 0 0-.02.002c-1.266.1-1.348 1.052-1.348 2.003a22.7 22.7 0 0 0 0 .114c.01 2.049.988 3.31 2.537 3.31Zm43.9 35.322a1.531 1.531 0 0 0-.021 0c-.479.06-.871.338-1.107.82a2.289 2.289 0 0 0-.191.6c-.23 1.265 1.053 3.423 2.315 3.847.714.239 1.367.2 1.836-.299a1.891 1.891 0 0 0 .295-.425c.717-1.381-1.325-4.543-3.127-4.543Zm30.64-54.499a3.623 3.623 0 0 0 .262-1.097 4.136 4.136 0 0 0-.126-.714c-.256-.929-.862-1.562-2-1.591a2.948 2.948 0 0 0-.077-.001c-.882 0-1.513.404-1.817 1.074a2.472 2.472 0 0 0-.205.98c-.026 1.422.762 2.405 2.227 2.435a2.676 2.676 0 0 0 .056.001c.868 0 1.393-.431 1.68-1.087Zm7.544 39.892a3.672 3.672 0 0 0 .23-1.123 4.124 4.124 0 0 0-.175-.766c-.304-.889-.934-1.473-2.059-1.432-1.256.045-1.945.883-1.945 2.046a3.05 3.05 0 0 0 .005.166c.072 1.314.898 2.234 2.248 2.235a2.314 2.314 0 0 0 .415-.035c.653-.119 1.055-.526 1.281-1.09Zm13.487-38.431c-.233 1.26-.747 2.491-2.242 2.484a1.745 1.745 0 0 1-.74-.155c-.78-.364-1.054-1.315-1.064-2.22-.01-1.061.525-1.81 1.472-2.045a2.763 2.763 0 0 1 .593-.077 2.825 2.825 0 0 1 .073-.001c.923 0 1.462.465 1.73 1.22a3.684 3.684 0 0 1 .178.794ZM111.4 277.44a3.284 3.284 0 0 0 .318-1.048c-.14-1.184-.736-2.002-1.96-2.033a2.82 2.82 0 0 0-.072 0c-.828 0-1.437.371-1.738.998a2.278 2.278 0 0 0-.21.92c-.039 1.27.668 2.134 1.992 2.134a3.062 3.062 0 0 0 .023 0c.819-.007 1.34-.385 1.647-.97Zm-43.805-30.738a3.246 3.246 0 0 0-.052-.497c-.196-1.05-.923-1.672-2.087-1.831a3.668 3.668 0 0 0-.013.002c-1.108.16-1.692.771-1.664 1.775a2.727 2.727 0 0 0 .015.213 3.236 3.236 0 0 0 .091.499c.258.958.955 1.566 2.073 1.576a2.417 2.417 0 0 0 .02 0c1.032 0 1.618-.665 1.618-1.659a2.585 2.585 0 0 0 0-.078Zm27.711-8.041a3.746 3.746 0 0 0 .234-1.027c-.139-1.117-.428-2.251-1.775-2.417-.758-.093-1.222.258-1.446.807a2.45 2.45 0 0 0-.162.903 6.733 6.733 0 0 0 0 .044c0 .996.224 1.943 1.08 2.332a2.164 2.164 0 0 0 .74.177c.72.054 1.111-.298 1.33-.82ZM44.8 187.046a2.65 2.65 0 0 0 .857.23 2.845 2.845 0 0 0 .626-.115c.468-.146.821-.42 1.01-.833a1.803 1.803 0 0 0 .15-.706c.023-.892-.348-1.57-1.053-1.861a2.205 2.205 0 0 0-.821-.155 2.76 2.76 0 0 0-.03 0c-1.063 0-1.74.62-1.74 1.694a2.68 2.68 0 0 0 .004.138c.04.792.4 1.322.997 1.608ZM37 202.274c.106-.91.23-1.948 1.423-1.888a1.588 1.588 0 0 1 .644.16c.643.325.872 1.088.93 1.85a5.286 5.286 0 0 1 .005.081 2.634 2.634 0 0 1 .005.159c0 .733-.317 1.365-1.02 1.543a1.673 1.673 0 0 1-.34.048c-.913.038-1.319-.451-1.508-1.122a4.545 4.545 0 0 1-.139-.831Zm11.934 55.556a1.96 1.96 0 0 0-.502-.137 2.038 2.038 0 0 0-.26.047c-.52.132-.888.473-.907 1.108-.016.529.206.918.61 1.102a1.396 1.396 0 0 0 .519.118c.73.033 1.189-.39 1.211-1.123a1.756 1.756 0 0 0 0-.053c0-.517-.234-.87-.671-1.062Z" fill="rgba(224, 99, 49, 1)" fill-rule="evenodd" data-name="Shape"/></svg>