<svg xmlns="http://www.w3.org/2000/svg" width="578.018" height="834.029" viewBox="1056.492 19.485 578.018 834.029"><g data-name="Zigzag" transform="translate(1056 19)" clip-path="url(&quot;#a&quot;)"><path d="M16.635 836.014 1.992 814.072l14.643-21.945-14.643-21.942 14.643-21.945-14.643-21.943 14.643-21.944-14.643-21.946 14.643-21.943-14.643-21.949 14.643-21.944-14.643-21.948 14.643-21.944L1.992 550.73l14.643-21.946-14.643-21.946 14.643-21.947-14.643-21.95 14.643-21.948-14.643-21.947L16.635 397.1 1.992 375.152l14.643-21.949-14.643-21.95 14.643-21.95-14.643-21.95 14.643-21.95L1.992 243.46l14.643-21.948-14.643-21.952 14.643-21.947-14.643-21.95 14.643-21.95-14.643-21.953 14.643-21.953L1.992 67.853l14.643-21.954L1.992 23.942 16.635 1.985H580.01l-1.206 833.537-562.169.492Z" stroke-miterlimit="100" stroke-width="3" stroke="rgba(0, 0, 0, 1)" fill="#f4581f"/></g><defs><clipPath id="a"><path d="M1 1h1487v816H1V1Z" data-name="Background"/></clipPath></defs></svg>