<svg xmlns="http://www.w3.org/2000/svg" width="1640.989" height="143.008" viewBox="-1.5 -1.5 1640.989 143.008"><g data-name="Zigzag" clip-path="url(&quot;#a&quot;)"><path d="M819.932.145 820.15 0 842.3 14.79 864.448 0 886.6 14.79 908.75 0l22.15 14.79L953.053 0l22.15 14.79L997.357 0l22.15 14.79L1041.663 0l22.151 14.79L1085.968 0l22.153 14.79L1130.273 0l22.154 14.79L1174.583 0l22.155 14.79L1218.89 0l22.154 14.79L1263.2 0l22.155 14.79L1307.513 0l22.155 14.79L1351.825 0l22.155 14.79L1396.132 0l22.155 14.79L1440.445 0l22.154 14.79L1484.755 0l22.157 14.79L1529.072 0l22.16 14.79L1573.39 0l22.16 14.79L1617.717 0l22.163 14.79 1.11 128.218-798.01-1.143.01 1.143L.497 141.801 0 14.789 22.149 0 44.3 14.79 66.448 0 88.6 14.79 110.75 0l22.15 14.79L155.053 0l22.15 14.79L199.357 0l22.15 14.79L243.663 0l22.151 14.79L287.968 0l22.153 14.79L332.273 0l22.154 14.79L376.583 0l22.155 14.79L420.89 0l22.154 14.79L465.2 0l22.155 14.79L509.513 0l22.155 14.79L553.825 0l22.155 14.79L598.132 0l22.155 14.79L642.445 0l22.154 14.79L686.755 0l22.157 14.79L731.072 0l22.16 14.79L775.39 0l22.16 14.79L819.717 0l.216.145Z" stroke-miterlimit="100" stroke-width="3" stroke="rgba(0, 0, 0, 1)" fill="#ffd444"/></g><defs><clipPath id="a"><path d="M2 2h1487v655H2V2Z" data-name="Background" transform="translate(10 -552)"/></clipPath></defs></svg>